<?xml version="1.0" encoding="UTF-8" standalone="no"?>
<!DOCTYPE svg PUBLIC "-//W3C//DTD SVG 1.1//EN"
 "http://www.w3.org/Graphics/SVG/1.1/DTD/svg11.dtd">
<!-- Generated by graphviz version 2.36.0 (20140111.2315)
 -->
<!-- Title: G Pages: 1 -->
<svg width="414pt" height="240pt"
 viewBox="0.00 0.00 414.00 240.00" xmlns="http://www.w3.org/2000/svg" xmlns:xlink="http://www.w3.org/1999/xlink">
<g id="graph0" class="graph" transform="scale(1 1) rotate(0) translate(4 236)">
<title>G</title>
<polygon fill="white" stroke="none" points="-4,4 -4,-236 410,-236 410,4 -4,4"/>
<g id="clust1" class="cluster"><title>cluster_Global</title>
<path fill="none" stroke="gray" d="M104,-44C104,-44 386,-44 386,-44 392,-44 398,-50 398,-56 398,-56 398,-212 398,-212 398,-218 392,-224 386,-224 386,-224 104,-224 104,-224 98,-224 92,-218 92,-212 92,-212 92,-56 92,-56 92,-50 98,-44 104,-44"/>
<text text-anchor="middle" x="245" y="-211.2" font-family="Times,serif" font-size="11.00" fill="gray">Global</text>
</g>
<!-- \\testbdd -->
<g id="node1" class="node"><title>\\testbdd</title>
<polygon fill="none" stroke="black" points="390,-142 326,-142 326,-106 390,-106 390,-142"/>
<text text-anchor="middle" x="358" y="-121.2" font-family="Courier,monospace" font-size="11.00">testbdd</text>
</g>
<!-- \\PHPUnit_Framework_TestCase -->
<g id="node5" class="node"><title>\\PHPUnit_Framework_TestCase</title>
<ellipse fill="none" stroke="black" cx="127" cy="-18" rx="126.978" ry="18"/>
<text text-anchor="middle" x="127" y="-14.3" font-family="Times,serif" font-size="14.00" fill="gray">\PHPUnit_Framework_TestCase</text>
</g>
<!-- \\testbdd&#45;&gt;\\PHPUnit_Framework_TestCase -->
<g id="edge1" class="edge"><title>\\testbdd&#45;&gt;\\PHPUnit_Framework_TestCase</title>
<path fill="none" stroke="black" d="M335.816,-105.753C308.455,-82.3397 263.235,-44.2186 254,-40 247.757,-37.1484 241.186,-34.6646 234.455,-32.5015"/>
<polygon fill="none" stroke="black" points="235.083,-29.0372 224.501,-29.5562 233.097,-35.7496 235.083,-29.0372"/>
</g>
<!-- \\api -->
<g id="node2" class="node"><title>\\api</title>
<polygon fill="none" stroke="black" points="385,-196 331,-196 331,-160 385,-160 385,-196"/>
<text text-anchor="middle" x="358" y="-175.2" font-family="Courier,monospace" font-size="11.00">api</text>
</g>
<!-- \\bdd -->
<g id="node4" class="node"><title>\\bdd</title>
<polygon fill="none" stroke="black" points="154,-196 100,-196 100,-160 154,-160 154,-196"/>
<text text-anchor="middle" x="127" y="-175.2" font-family="Courier,monospace" font-size="11.00">bdd</text>
</g>
<!-- \\api&#45;&gt;\\bdd -->
<g id="edge2" class="edge"><title>\\api&#45;&gt;\\bdd</title>
<path fill="none" stroke="black" d="M330.731,-178C289.859,-178 210.928,-178 164.531,-178"/>
<polygon fill="none" stroke="black" points="164.315,-174.5 154.315,-178 164.315,-181.5 164.315,-174.5"/>
</g>
<!-- \\testapi -->
<g id="node3" class="node"><title>\\testapi</title>
<polygon fill="none" stroke="black" points="390,-88 326,-88 326,-52 390,-52 390,-88"/>
<text text-anchor="middle" x="358" y="-67.2" font-family="Courier,monospace" font-size="11.00">testapi</text>
</g>
<!-- \\testapi&#45;&gt;\\PHPUnit_Framework_TestCase -->
<g id="edge3" class="edge"><title>\\testapi&#45;&gt;\\PHPUnit_Framework_TestCase</title>
<path fill="none" stroke="black" d="M325.682,-59.8998C305.392,-53.5996 278.311,-45.6446 254,-40 243.732,-37.616 232.94,-35.3597 222.171,-33.2657"/>
<polygon fill="none" stroke="black" points="222.781,-29.8191 212.303,-31.3893 221.473,-36.6958 222.781,-29.8191"/>
</g>
</g>
</svg>
