<?xml version="1.0" encoding="UTF-8" standalone="no"?>
<!DOCTYPE svg PUBLIC "-//W3C//DTD SVG 1.1//EN"
 "http://www.w3.org/Graphics/SVG/1.1/DTD/svg11.dtd">
<!-- Generated by graphviz version 2.36.0 (20140111.2315)
 -->
<!-- Title: G Pages: 1 -->
<svg width="434pt" height="402pt"
 viewBox="0.00 0.00 434.00 402.00" xmlns="http://www.w3.org/2000/svg" xmlns:xlink="http://www.w3.org/1999/xlink">
<g id="graph0" class="graph" transform="scale(1 1) rotate(0) translate(4 398)">
<title>G</title>
<polygon fill="white" stroke="none" points="-4,4 -4,-398 430,-398 430,4 -4,4"/>
<g id="clust1" class="cluster"><title>cluster_Global</title>
<path fill="none" stroke="gray" d="M104,-44C104,-44 406,-44 406,-44 412,-44 418,-50 418,-56 418,-56 418,-374 418,-374 418,-380 412,-386 406,-386 406,-386 104,-386 104,-386 98,-386 92,-380 92,-374 92,-374 92,-56 92,-56 92,-50 98,-44 104,-44"/>
<text text-anchor="middle" x="255" y="-373.2" font-family="Times,serif" font-size="11.00" fill="gray">Global</text>
</g>
<!-- \\Komidi -->
<g id="node1" class="node"><title>\\Komidi</title>
<polygon fill="none" stroke="black" points="396.5,-358 339.5,-358 339.5,-322 396.5,-322 396.5,-358"/>
<text text-anchor="middle" x="368" y="-337.2" font-family="Courier,monospace" font-size="11.00">Komidi</text>
</g>
<!-- \\db -->
<g id="node7" class="node"><title>\\db</title>
<polygon fill="none" stroke="black" points="154,-331 100,-331 100,-295 154,-295 154,-331"/>
<text text-anchor="middle" x="127" y="-310.2" font-family="Courier,monospace" font-size="11.00">db</text>
</g>
<!-- \\Komidi&#45;&gt;\\db -->
<g id="edge1" class="edge"><title>\\Komidi&#45;&gt;\\db</title>
<path fill="none" stroke="black" d="M339.116,-336.85C295.752,-331.951 212.165,-322.508 164.201,-317.09"/>
<polygon fill="none" stroke="black" points="164.578,-313.61 154.248,-315.965 163.792,-320.566 164.578,-313.61"/>
</g>
<!-- \\testmail -->
<g id="node2" class="node"><title>\\testmail</title>
<polygon fill="none" stroke="black" points="403.5,-250 332.5,-250 332.5,-214 403.5,-214 403.5,-250"/>
<text text-anchor="middle" x="368" y="-229.2" font-family="Courier,monospace" font-size="11.00">testmail</text>
</g>
<!-- \\PHPUnit_Framework_TestCase -->
<g id="node8" class="node"><title>\\PHPUnit_Framework_TestCase</title>
<ellipse fill="none" stroke="black" cx="127" cy="-18" rx="126.978" ry="18"/>
<text text-anchor="middle" x="127" y="-14.3" font-family="Times,serif" font-size="14.00" fill="gray">\PHPUnit_Framework_TestCase</text>
</g>
<!-- \\testmail&#45;&gt;\\PHPUnit_Framework_TestCase -->
<g id="edge2" class="edge"><title>\\testmail&#45;&gt;\\PHPUnit_Framework_TestCase</title>
<path fill="none" stroke="black" d="M335.003,-213.689C331.724,-211.034 328.635,-208.129 326,-205 274.458,-143.802 316.908,-89.4408 254,-40 250.366,-37.1442 246.491,-34.6073 242.436,-32.3564"/>
<polygon fill="none" stroke="black" points="243.819,-29.1364 233.3,-27.8727 240.735,-35.4204 243.819,-29.1364"/>
</g>
<!-- \\Mail -->
<g id="node3" class="node"><title>\\Mail</title>
<polygon fill="none" stroke="black" points="395,-304 341,-304 341,-268 395,-268 395,-304"/>
<text text-anchor="middle" x="368" y="-283.2" font-family="Courier,monospace" font-size="11.00">Mail</text>
</g>
<!-- \\Mail&#45;&gt;\\db -->
<g id="edge3" class="edge"><title>\\Mail&#45;&gt;\\db</title>
<path fill="none" stroke="black" d="M340.968,-288.941C298.137,-293.78 212.716,-303.43 164.08,-308.924"/>
<polygon fill="none" stroke="black" points="163.544,-305.462 154,-310.063 164.33,-312.418 163.544,-305.462"/>
</g>
<!-- \\testdb -->
<g id="node4" class="node"><title>\\testdb</title>
<polygon fill="none" stroke="black" points="396.5,-196 339.5,-196 339.5,-160 396.5,-160 396.5,-196"/>
<text text-anchor="middle" x="368" y="-175.2" font-family="Courier,monospace" font-size="11.00">testdb</text>
</g>
<!-- \\testdb&#45;&gt;\\PHPUnit_Framework_TestCase -->
<g id="edge4" class="edge"><title>\\testdb&#45;&gt;\\PHPUnit_Framework_TestCase</title>
<path fill="none" stroke="black" d="M339.321,-162.054C334.609,-158.719 329.964,-154.991 326,-151 284.564,-109.276 303.053,-72.4276 254,-40 249.654,-37.127 245.046,-34.5959 240.262,-32.368"/>
<polygon fill="none" stroke="black" points="241.44,-29.0675 230.864,-28.4474 238.745,-35.5279 241.44,-29.0675"/>
</g>
<!-- \\testkomidi -->
<g id="node5" class="node"><title>\\testkomidi</title>
<polygon fill="none" stroke="black" points="410,-142 326,-142 326,-106 410,-106 410,-142"/>
<text text-anchor="middle" x="368" y="-121.2" font-family="Courier,monospace" font-size="11.00">testkomidi</text>
</g>
<!-- \\testkomidi&#45;&gt;\\PHPUnit_Framework_TestCase -->
<g id="edge5" class="edge"><title>\\testkomidi&#45;&gt;\\PHPUnit_Framework_TestCase</title>
<path fill="none" stroke="black" d="M338.549,-105.727C334.301,-102.866 330.006,-99.8963 326,-97 292.925,-73.0869 291.246,-56.6889 254,-40 247.522,-37.0972 240.696,-34.5764 233.712,-32.3873"/>
<polygon fill="none" stroke="black" points="234.686,-29.0255 224.107,-29.6031 232.737,-35.7488 234.686,-29.0255"/>
</g>
<!-- \\Spectacle -->
<g id="node6" class="node"><title>\\Spectacle</title>
<polygon fill="none" stroke="black" points="406.5,-88 329.5,-88 329.5,-52 406.5,-52 406.5,-88"/>
<text text-anchor="middle" x="368" y="-67.2" font-family="Courier,monospace" font-size="11.00">Spectacle</text>
</g>
</g>
</svg>
