<?xml version="1.0" encoding="UTF-8" standalone="no"?>
<!DOCTYPE svg PUBLIC "-//W3C//DTD SVG 1.1//EN"
 "http://www.w3.org/Graphics/SVG/1.1/DTD/svg11.dtd">
<!-- Generated by graphviz version 2.36.0 (20140111.2315)
 -->
<!-- Title: G Pages: 1 -->
<svg width="244pt" height="204pt"
 viewBox="0.00 0.00 244.00 204.00" xmlns="http://www.w3.org/2000/svg" xmlns:xlink="http://www.w3.org/1999/xlink">
<g id="graph0" class="graph" transform="scale(1 1) rotate(0) translate(4 200)">
<title>G</title>
<polygon fill="white" stroke="none" points="-4,4 -4,-200 240,-200 240,4 -4,4"/>
<g id="clust1" class="cluster"><title>cluster_Global</title>
<path fill="none" stroke="gray" d="M20,-8C20,-8 216,-8 216,-8 222,-8 228,-14 228,-20 228,-20 228,-176 228,-176 228,-182 222,-188 216,-188 216,-188 20,-188 20,-188 14,-188 8,-182 8,-176 8,-176 8,-20 8,-20 8,-14 14,-8 20,-8"/>
<text text-anchor="middle" x="118" y="-175.2" font-family="Times,serif" font-size="11.00" fill="gray">Global</text>
</g>
<!-- \\Komidi -->
<g id="node1" class="node"><title>\\Komidi</title>
<polygon fill="none" stroke="black" points="209.5,-160 152.5,-160 152.5,-124 209.5,-124 209.5,-160"/>
<text text-anchor="middle" x="181" y="-139.2" font-family="Courier,monospace" font-size="11.00">Komidi</text>
</g>
<!-- \\db -->
<g id="node4" class="node"><title>\\db</title>
<polygon fill="none" stroke="black" points="70,-133 16,-133 16,-97 70,-97 70,-133"/>
<text text-anchor="middle" x="43" y="-112.2" font-family="Courier,monospace" font-size="11.00">db</text>
</g>
<!-- \\Komidi&#45;&gt;\\db -->
<g id="edge1" class="edge"><title>\\Komidi&#45;&gt;\\db</title>
<path fill="none" stroke="black" d="M152.478,-136.536C131.613,-132.394 102.753,-126.664 80.0457,-122.156"/>
<polygon fill="none" stroke="black" points="80.5866,-118.695 70.0964,-120.181 79.2234,-125.561 80.5866,-118.695"/>
</g>
<!-- \\Mail -->
<g id="node2" class="node"><title>\\Mail</title>
<polygon fill="none" stroke="black" points="208,-106 154,-106 154,-70 208,-70 208,-106"/>
<text text-anchor="middle" x="181" y="-85.2" font-family="Courier,monospace" font-size="11.00">Mail</text>
</g>
<!-- \\Mail&#45;&gt;\\db -->
<g id="edge2" class="edge"><title>\\Mail&#45;&gt;\\db</title>
<path fill="none" stroke="black" d="M153.778,-93.2059C132.8,-97.3706 103.161,-103.255 79.9663,-107.86"/>
<polygon fill="none" stroke="black" points="79.2687,-104.43 70.1417,-109.81 80.6318,-111.296 79.2687,-104.43"/>
</g>
<!-- \\Spectacle -->
<g id="node3" class="node"><title>\\Spectacle</title>
<polygon fill="none" stroke="black" points="219.5,-52 142.5,-52 142.5,-16 219.5,-16 219.5,-52"/>
<text text-anchor="middle" x="181" y="-31.2" font-family="Courier,monospace" font-size="11.00">Spectacle</text>
</g>
</g>
</svg>
